<?xml version="1.0" encoding="UTF-8" standalone="no"?>
<svg
   xmlns:dc="http://purl.org/dc/elements/1.1/"
   xmlns:cc="http://creativecommons.org/ns#"
   xmlns:rdf="http://www.w3.org/1999/02/22-rdf-syntax-ns#"
   xmlns:svg="http://www.w3.org/2000/svg"
   xmlns="http://www.w3.org/2000/svg"
   viewBox="0 0 249.765 212.92"
   height="212.92"
   width="249.765"
   xml:space="preserve"
   version="1.1"
   id="svg2"><metadata
     id="metadata8"><rdf:RDF><cc:Work
         rdf:about=""><dc:format>image/svg+xml</dc:format><dc:type
           rdf:resource="http://purl.org/dc/dcmitype/StillImage" /></cc:Work></rdf:RDF></metadata><defs
     id="defs6"><clipPath
       id="clipPath18"
       clipPathUnits="userSpaceOnUse"><path
         id="path20"
         d="m 0,170.336 199.812,0 L 199.812,0 0,0 0,170.336 Z" /></clipPath></defs><g
     transform="matrix(1.25,0,0,-1.25,0,212.92)"
     id="g10"><path
       id="path12"
       style="fill:#231f20;fill-opacity:1;fill-rule:nonzero;stroke:none"
       d="m 0.008,0 199.746,0 0,19.34 -199.746,0 0,-19.34 z" /><g
       id="g14"><g
         clip-path="url(#clipPath18)"
         id="g16"><g
           transform="translate(127.6094,170.3359)"
           id="g22"><path
             id="path24"
             style="fill:#231f20;fill-opacity:1;fill-rule:nonzero;stroke:none"
             d="m 0,0 -55.121,0 c -53.192,0 -72.488,-16.539 -72.488,-69.176 l 0,-46.332 199.812,0 0,46.332 C 72.203,-16.539 53.184,0 0,0 m -109.148,-74.031 c 0,21.492 2.757,37 11.574,44.719 10.207,8.539 23.711,9.371 43,9.371 l 53.734,0 c 19.297,0 32.809,-0.832 43.004,-9.371 8.828,-7.719 11.566,-23.227 11.566,-44.719 l 0,-21.633 -162.878,0 0,21.633" /></g><g
           transform="translate(14.8672,29.3398)"
           id="g26"><path
             id="path28"
             style="fill:#231f20;fill-opacity:1;fill-rule:nonzero;stroke:none"
             d="m 0,0 3.969,0 -6.516,14.281 -4.562,0 L -13.641,0 l 3.993,0 1.312,3.102 7.024,0 L 0,0 Z m -4.836,11.418 2.438,-5.742 -4.856,0 2.418,5.742 z" /></g><g
           transform="translate(24.7852,43.6211)"
           id="g30"><path
             id="path32"
             style="fill:#231f20;fill-opacity:1;fill-rule:nonzero;stroke:none"
             d="m 0,0 0,-9.316 c 0,-1.918 0.746,-2.387 4.332,-2.387 3.223,0 4.434,0.375 4.434,2.535 l 0,9.168 3.476,0 0,-9.582 c 0,-3.879 -2.863,-4.84 -7.953,-4.84 -2.695,0 -5.223,0.27 -6.605,1.535 -0.969,0.871 -1.164,2.469 -1.164,3.305 L -3.48,0 0,0 Z" /></g><g
           transform="translate(49.207,40.9023)"
           id="g34"><path
             id="path36"
             style="fill:#231f20;fill-opacity:1;fill-rule:nonzero;stroke:none"
             d="m 0,0 0,-11.563 -3.504,0 0,11.563 -5.855,0 0,2.719 15.238,0 L 5.879,0 0,0 Z" /></g><g
           transform="translate(66.0508,43.7656)"
           id="g38"><path
             id="path40"
             style="fill:#231f20;fill-opacity:1;fill-rule:nonzero;stroke:none"
             d="m 0,0 c -3.906,0 -5.52,-0.43 -6.684,-1.539 -0.933,-0.871 -1.507,-2.106 -1.507,-5.996 0,-6.305 2.316,-7.031 8.574,-7.031 6.769,0 7.828,1.898 7.828,7.5 C 8.211,-0.992 6.086,0 0,0 m 4.715,-7.305 c 0,-0.906 -0.028,-2.39 -0.324,-3.203 -0.403,-1.25 -2.203,-1.34 -3.989,-1.34 -3.246,0 -4.031,0.235 -4.515,0.871 -0.574,0.758 -0.574,2.5 -0.574,3.672 0,0.981 0,3.032 0.589,3.7 0.575,0.667 1.528,0.886 3.711,0.886 3.231,0 3.996,-0.234 4.5,-0.886 0.602,-0.762 0.602,-2.555 0.602,-3.7" /></g><path
           id="path42"
           style="fill:#231f20;fill-opacity:1;fill-rule:nonzero;stroke:none"
           d="m 89.992,29.34 -3.52,0 0,14.281 3.52,0 0,-14.281 z" /><g
           transform="translate(95.1914,43.6211)"
           id="g44"><path
             id="path46"
             style="fill:#231f20;fill-opacity:1;fill-rule:nonzero;stroke:none"
             d="m 0,0 0,-14.281 9.801,0 c 4.801,0 6.242,1.816 6.242,7.215 0,2.461 -0.258,4.929 -2.043,6.125 C 12.629,0 10.93,0 9.676,0 L 0,0 Z m 9.363,-2.719 c 2.567,0 3.176,-0.761 3.176,-4.203 0,-3.863 -0.336,-4.641 -3.16,-4.641 l -5.902,0 0,8.844 5.886,0 z" /></g><g
           transform="translate(134.5664,43.6211)"
           id="g48"><path
             id="path50"
             style="fill:#231f20;fill-opacity:1;fill-rule:nonzero;stroke:none"
             d="m 0,0 0,-11.563 9.223,0 0,-2.718 -12.727,0 L -3.504,0 0,0 Z" /></g><g
           transform="translate(158.9687,29.3398)"
           id="g52"><path
             id="path54"
             style="fill:#231f20;fill-opacity:1;fill-rule:nonzero;stroke:none"
             d="m 0,0 3.973,0 -6.52,14.281 -4.558,0 -6.54,-14.281 3.989,0 1.312,3.102 7.028,0 L 0,0 Z m -4.836,11.418 2.441,-5.742 -4.859,0 2.418,5.742 z" /></g><g
           transform="translate(175.9141,35.3398)"
           id="g56"><path
             id="path58"
             style="fill:#231f20;fill-opacity:1;fill-rule:nonzero;stroke:none"
             d="m 0,0 c 0.855,0 2.109,0 2.109,-1.684 0,-1.449 -0.656,-1.711 -1.98,-1.711 l -6.66,0 0,3.395 L 0,0 Z m -10.027,8.281 0,-14.281 10.843,0 c 1.758,0 2.813,0.508 3.145,0.652 1.492,0.711 1.672,2.461 1.672,3.317 0,1.906 -0.887,3.101 -2.906,3.465 2,0.539 2.312,1.863 2.312,3.093 0,2.871 -1.781,3.754 -4.117,3.754 l -10.949,0 z m 9.632,-2.613 c 1.25,0 1.872,-0.234 1.872,-1.461 C 1.477,3.191 1.297,2.5 -0.437,2.5 l -6.094,0 0,3.168 6.136,0 z" /></g><g
           transform="translate(195.457,39.0156)"
           id="g60"><path
             id="path62"
             style="fill:#231f20;fill-opacity:1;fill-rule:nonzero;stroke:none"
             d="m 0,0 c 0,1.613 -0.316,2.121 -3.609,2.121 -2.207,0 -3.801,0 -3.801,-1.664 0,-0.762 0.32,-1.254 1.808,-1.359 l 5.239,-0.414 c 0.765,-0.059 2.273,-0.293 3.222,-1.075 1.086,-0.867 1.262,-2.062 1.262,-2.968 0,-4.063 -3.355,-4.477 -7.281,-4.477 -4.352,0 -5.5,0.508 -6.289,1.121 -1.25,0.942 -1.391,2.231 -1.391,3.949 l 3.477,0 c 0,-1.796 0.062,-2.371 3.883,-2.371 2.867,0 4.164,0.106 4.164,1.723 0,1.051 -0.598,1.469 -1.68,1.559 l -6.094,0.488 c -2.773,0.234 -3.672,1.906 -3.672,3.859 0,4.008 3.653,4.258 6.938,4.258 3.672,0 4.82,-0.418 5.672,-0.906 C 3.328,2.969 3.438,1.797 3.457,0 L 0,0 Z" /></g><g
           transform="translate(18.4609,96.3047)"
           id="g64"><path
             id="path66"
             style="fill:#cac9ca;fill-opacity:1;fill-rule:nonzero;stroke:none"
             d="m 0,0 c 0,21.492 2.762,37 11.574,44.719 10.211,8.539 23.711,9.371 43,9.371 l 53.735,0 c 19.296,0 32.808,-0.832 43.003,-9.371 C 160.141,37 162.879,21.492 162.879,0 l 0,-21.633 L 0,-21.633 0,0" /></g><g
           transform="translate(18.4609,96.3047)"
           id="g68"><path
             id="path70"
             style="fill:#b3ddef;fill-opacity:1;fill-rule:nonzero;stroke:none"
             d="m 0,0 c 0,21.492 2.762,37 11.574,44.719 10.211,8.539 23.711,9.371 43,9.371 l 53.735,0 c 19.296,0 32.808,-0.832 43.003,-9.371 C 160.141,37 162.879,21.492 162.879,0 l 0,-21.633 L 0,-21.633 0,0" /></g><path
           id="path72"
           style="fill:#231f20;fill-opacity:1;fill-rule:nonzero;stroke:none"
           d="m 82.197,34.021 -4.75,0 0,2.609 4.75,0 0,-2.609 z" /></g></g></g></svg>